<svg xmlns="http://www.w3.org/2000/svg" width="100%" height="100%" viewBox="0 0 24 24" fill="currentColor"><path d="M12.75 12.75a.75.75 0 11-1.5 0 .75.75 0 011.5 0zm-5.25 3a.75.75 0 100-1.5.75.75 0 000 1.5zm.75 1.5a.75.75 0 11-1.5 0 .75.75 0 011.5 0zm1.5-1.5a.75.75 0 100-1.5.75.75 0 000 1.5zm.75 1.5a.75.75 0 11-1.5 0 .75.75 0 011.5 0zm1.5-1.5a.75.75 0 100-1.5.75.75 0 000 1.5zm.75 1.5a.75.75 0 11-1.5 0 .75.75 0 011.5 0zm1.5-1.5a.75.75 0 100-1.5.75.75 0 000 1.5zm.75 1.5a.75.75 0 11-1.5 0 .75.75 0 011.5 0zm1.5-1.5a.75.75 0 100-1.5.75.75 0 000 1.5zm-1.5-3a.75.75 0 11-1.5 0 .75.75 0 011.5 0zm1.5.75a.75.75 0 100-1.5.75.75 0 000 1.5z"/><path fill-rule="evenodd" d="M6.75 2.25A.75.75 0 017.5 3v1.5h9V3A.75.75 0 0118 3v1.5h.75a3 3 0 013 3v11.25a3 3 0 01-3 3H5.25a3 3 0 01-3-3V7.5a3 3 0 013-3H6V3a.75.75 0 01.75-.75zm13.5 9a1.5 1.5 0 00-1.5-1.5H5.25a1.5 1.5 0 00-1.5 1.5v7.5a1.5 1.5 0 001.5 1.5h13.5a1.5 1.5 0 001.5-1.5v-7.5z" clip-rule="evenodd"/></svg>