<svg xmlns="http://www.w3.org/2000/svg" width="100%" height="100%" viewBox="0 0 24 24" fill="none" stroke="currentColor"><path stroke-linecap="round" stroke-linejoin="round" d="M3.75 4.875c0-.621.504-1.125 1.125-1.125h4.5c.621 0 1.125.504 1.125 1.125v4.5c0 .621-.504 1.125-1.125 1.125h-4.5A1.125 1.125 0 013.75 9.375v-4.5zm0 9.75c0-.621.504-1.125 1.125-1.125h4.5c.621 0 1.125.504 1.125 1.125v4.5c0 .621-.504 1.125-1.125 1.125h-4.5a1.125 1.125 0 01-1.125-1.125v-4.5zm9.75-9.75c0-.621.504-1.125 1.125-1.125h4.5c.621 0 1.125.504 1.125 1.125v4.5c0 .621-.504 1.125-1.125 1.125h-4.5A1.125 1.125 0 0113.5 9.375v-4.5z"/><path stroke-linecap="round" stroke-linejoin="round" d="M6.75 6.75h.75v.75h-.75v-.75zm0 9.75h.75v.75h-.75v-.75zm9.75-9.75h.75v.75h-.75v-.75zm-3 6.75h.75v.75h-.75v-.75zm0 6h.75v.75h-.75v-.75zm6-6h.75v.75h-.75v-.75zm0 6h.75v.75h-.75v-.75zm-3-3h.75v.75h-.75v-.75z"/></svg>